<svg width="1440" height="1100" viewBox="0 0 1440 1100" fill="none" xmlns="http://www.w3.org/2000/svg">
<g opacity="0.5" clip-path="url(#clip0_51_1203)">
<g opacity="0.6">
<g opacity="0.6">
<path opacity="0.5" d="M0 0.5H1440" stroke="#828282" stroke-width="0.999938"/>
<path opacity="0.5" d="M0 100.494H1440" stroke="#828282" stroke-width="0.999938"/>
<path opacity="0.5" d="M0 200.488H1440" stroke="#828282" stroke-width="0.999938"/>
<path opacity="0.5" d="M0 300.482H1440" stroke="#828282" stroke-width="0.999938"/>
<path opacity="0.5" d="M0 400.475H1440" stroke="#828282" stroke-width="0.999938"/>
<path opacity="0.5" d="M0 500.469H1440" stroke="#828282" stroke-width="0.999938"/>
<path opacity="0.5" d="M0 600.463H1440" stroke="#828282" stroke-width="0.999938"/>
<path opacity="0.5" d="M0 700.457H1440" stroke="#828282" stroke-width="0.999938"/>
<path opacity="0.5" d="M0 800.451H1440" stroke="#828282" stroke-width="0.999938"/>
<path opacity="0.5" d="M0 900.444L1440 900.445" stroke="#828282" stroke-width="0.999938"/>
<path opacity="0.5" d="M0 1000.44H1440" stroke="#828282" stroke-width="0.999938"/>
<path opacity="0.5" d="M0 1100.43H1440" stroke="#828282" stroke-width="0.999938"/>
<path d="M-0.5 1201.94L-0.367432 1" stroke="#828282" stroke-width="0.999938"/>
<path opacity="0.5" d="M99.625 1436.88V1" stroke="#828282" stroke-width="0.999938"/>
<path opacity="0.5" d="M199.621 1436.88V1" stroke="#828282" stroke-width="0.999938"/>
<path opacity="0.5" d="M299.613 1436.88V1" stroke="#828282" stroke-width="0.999938"/>
<path opacity="0.5" d="M399.609 1436.88V1" stroke="#828282" stroke-width="0.999938"/>
<path opacity="0.5" d="M499.602 1436.88V1" stroke="#828282" stroke-width="0.999938"/>
<path opacity="0.5" d="M599.594 1436.88L599.595 1" stroke="#828282" stroke-width="0.999938"/>
<path opacity="0.5" d="M699.59 1436.88V1" stroke="#828282" stroke-width="0.999938"/>
<path opacity="0.5" d="M799.582 1436.88V1" stroke="#828282" stroke-width="0.999938"/>
<path opacity="0.5" d="M899.578 1436.88V1" stroke="#828282" stroke-width="0.999938"/>
<path opacity="0.5" d="M999.57 1436.88V1" stroke="#828282" stroke-width="0.999938"/>
<path opacity="0.5" d="M1099.56 1436.88V1" stroke="#828282" stroke-width="0.999938"/>
<path opacity="0.5" d="M1199.56 1436.88V1" stroke="#828282" stroke-width="0.999938"/>
<path opacity="0.5" d="M1299.55 1436.88V1" stroke="#828282" stroke-width="0.999938"/>
<path opacity="0.5" d="M1399.55 1436.88V1" stroke="#828282" stroke-width="0.999938"/>
</g>
</g>
</g>
<defs>
<clipPath id="clip0_51_1203">
<rect width="1441" height="1437" fill="white" transform="translate(-1)"/>
</clipPath>
</defs>
</svg>
