<svg width="1440" height="952" viewBox="0 0 1440 952" fill="none" xmlns="http://www.w3.org/2000/svg">
<g opacity="0.6">
<g opacity="0.6">
<path opacity="0.5" d="M0 0.5H1440" stroke="#323B4B" stroke-width="0.999938"/>
<path opacity="0.5" d="M0 71.8213H1440" stroke="#323B4B" stroke-width="0.999938"/>
<path opacity="0.5" d="M0 143.142H1440" stroke="#323B4B" stroke-width="0.999938"/>
<path opacity="0.5" d="M0 214.463H1440" stroke="#323B4B" stroke-width="0.999938"/>
<path opacity="0.5" d="M0 285.783H1440" stroke="#323B4B" stroke-width="0.999938"/>
<path opacity="0.5" d="M0 357.104H1440" stroke="#323B4B" stroke-width="0.999938"/>
<path opacity="0.5" d="M0 428.425H1440" stroke="#323B4B" stroke-width="0.999938"/>
<path opacity="0.5" d="M0 499.745H1440" stroke="#323B4B" stroke-width="0.999938"/>
<path opacity="0.5" d="M0 571.066H1440" stroke="#323B4B" stroke-width="0.999938"/>
<path opacity="0.5" d="M0 642.386L1440 642.387" stroke="#323B4B" stroke-width="0.999938"/>
<path opacity="0.5" d="M0 713.708H1440" stroke="#323B4B" stroke-width="0.999938"/>
<path opacity="0.5" d="M0 785.027H1440" stroke="#323B4B" stroke-width="0.999938"/>
<path d="M-0.5 857.429L-0.367432 0.856445" stroke="#323B4B" stroke-width="0.999938"/>
<path opacity="0.5" d="M99.625 1025V0.856445" stroke="#323B4B" stroke-width="0.999938"/>
<path opacity="0.5" d="M199.617 1025V0.856445" stroke="#323B4B" stroke-width="0.999938"/>
<path opacity="0.5" d="M299.613 1025V0.856445" stroke="#323B4B" stroke-width="0.999938"/>
<path opacity="0.5" d="M399.609 1025V0.856445" stroke="#323B4B" stroke-width="0.999938"/>
<path opacity="0.5" d="M499.602 1025V0.856445" stroke="#323B4B" stroke-width="0.999938"/>
<path opacity="0.5" d="M599.594 1025L599.595 0.856445" stroke="#323B4B" stroke-width="0.999938"/>
<path opacity="0.5" d="M699.59 1025V0.856445" stroke="#323B4B" stroke-width="0.999938"/>
<path opacity="0.5" d="M799.582 1025V0.856445" stroke="#323B4B" stroke-width="0.999938"/>
<path opacity="0.5" d="M899.578 1025V0.856445" stroke="#323B4B" stroke-width="0.999938"/>
<path opacity="0.5" d="M999.57 1025V0.856445" stroke="#323B4B" stroke-width="0.999938"/>
<path opacity="0.5" d="M1099.56 1025V0.856445" stroke="#323B4B" stroke-width="0.999938"/>
<path opacity="0.5" d="M1199.56 1025V0.856445" stroke="#323B4B" stroke-width="0.999938"/>
<path opacity="0.5" d="M1299.55 1025V0.856445" stroke="#323B4B" stroke-width="0.999938"/>
<path opacity="0.5" d="M1399.55 1025V0.856445" stroke="#323B4B" stroke-width="0.999938"/>
</g>
</g>
</svg>
